<?xml version="1.0" encoding="utf-8"?>
<!-- Generator: Adobe Illustrator 25.4.1, SVG Export Plug-In . SVG Version: 6.00 Build 0)  -->
<svg version="1.1" id="Layer_1" xmlns="http://www.w3.org/2000/svg" xmlns:xlink="http://www.w3.org/1999/xlink" x="0px" y="0px"
	 viewBox="0 0 1920 1080" style="enable-background:new 0 0 1920 1080;" xml:space="preserve">
<style type="text/css">
	.st0{clip-path:url(#SVGID_00000042729544210953859640000009052027108851431600_);}
	.st1{fill:#FDFDFD;}
	.st2{fill:#101010;}
	.st3{fill:#DFFA6B;}
	.st4{fill:#5E358D;}
</style>
<g>
	<defs>
		<rect id="SVGID_1_" x="460" y="285" width="1001" height="509"/>
	</defs>
	<clipPath id="SVGID_00000047023148715513596650000001095270166866358448_">
		<use xlink:href="#SVGID_1_"  style="overflow:visible;"/>
	</clipPath>
	<g style="clip-path:url(#SVGID_00000047023148715513596650000001095270166866358448_);">
		<path class="st1" d="M1460.9,644.96c0,48.31-0.05,96.63,0.1,144.94c0.01,3.42-0.67,4.1-4.1,4.09
			c-98.98-0.12-197.95-0.1-296.93-0.1c0.39-0.99,1.33-0.75,2.09-0.95c8.21-2.12,13.28-8.97,12.75-17.21
			c-0.54-8.37-6.83-14.5-15.99-15.55c-8.3-0.95-16.52,4.19-18.68,11.68c-2.43,8.45,0.96,16.34,8.57,20.11
			c1.12,0.56,2.65,0.47,3.26,1.91c-24.66,0-49.32,0-73.98,0c2.31-1.19,3.17-2.89,3.09-5.66c-0.24-7.95-0.13-15.91-0.06-23.86
			c0.02-2.23-0.15-4.02-3-3.94c-2.59,0.07-3.17,1.47-3.12,3.9c0.15,8.12,0.13,16.24,0.02,24.36c-0.02,1.88,0.24,3.57,1.08,5.2
			c-25.99,0-51.99,0-77.98,0c0.52-1.68,1.93-0.86,2.93-0.95c9.19-0.87,14.88-6.65,15.07-15.41c0.2-9.26-5.47-15.65-14.81-16.77
			c-3.98-0.48-8.01,0.14-11.92-0.19c-4.49-0.38-4.91,1.6-4.83,5.14c0.14,6.48,0.35,12.98-0.56,19.42c-0.49,3.5,0.4,6.44,3.13,8.75
			c-24.66,0-49.32,0-73.98,0c8.88-2.71,11.8-9.08,11.21-17.82c-0.26-3.81-0.08-7.65-0.04-11.47c0.03-2.12-0.02-4.12-2.91-4.13
			c-2.99-0.01-3.38,1.83-3.31,4.33c0.14,4.66,0.18,9.33,0,13.98c-0.24,6.2-3.01,9.2-8.16,9.26c-5.23,0.07-7.98-2.82-8.25-9.06
			c-0.22-4.98-0.15-9.97-0.18-14.95c-0.01-2.01-0.35-3.71-2.93-3.62c-2.19,0.08-3.35,1.05-3.3,3.4c0.08,3.83,0.29,7.68-0.03,11.48
			c-0.72,8.42,1.9,14.89,9.89,18.6c-26.99,0-53.99,0-80.98,0c2.32-1.2,3.23-2.91,3.08-5.68c-0.32-5.8-0.1-11.63-0.27-17.44
			c-0.11-3.6,1.22-5.37,4.98-4.83c0.98,0.14,1.98,0.34,2.95,0.3c1.82-0.08,3.18-0.7,3.27-2.91c0.09-2.29-1.23-2.93-3.11-2.9
			c-7.47,0.08-14.94,0.23-22.42,0.33c-1.98,0.03-2.51,1.15-2.5,2.91c0.01,1.7,0.85,2.4,2.45,2.4c1.33,0,2.67,0.12,3.99-0.01
			c3.53-0.36,4.85,1.26,4.6,4.66c-0.15,1.98-0.15,4,0,5.98c0.41,5.73-1.09,11.57,0.98,17.2c-25.99,0-51.99,0-77.98,0
			c0.18-0.8,0.78-0.85,1.46-0.98c5.59-1.04,8.37-3.88,8.54-8.62c0.16-4.74-2.1-7.57-7.47-9.1c-2.87-0.82-5.78-1.46-8.68-2.18
			c-1.96-0.48-3.44-1.48-3.21-3.72c0.23-2.16,1.89-3.02,3.81-3.35c3.19-0.56,6.32-0.24,9.21,1.27c1.97,1.03,3.23,0.23,4.08-1.42
			c0.97-1.88,0.17-3.04-1.73-3.84c-5.46-2.3-10.92-2.7-16.41-0.21c-3.68,1.67-5.73,4.52-5.56,8.62c0.16,3.95,2.43,6.44,6.11,7.6
			c3.32,1.04,6.69,1.9,10.04,2.86c1.84,0.53,3.61,1.37,3.54,3.56c-0.07,2.42-1.97,3.21-4.06,3.64c-4.09,0.84-7.92,0.28-11.43-2.06
			c-1.77-1.18-3.14-0.79-4.09,1.02c-0.91,1.73-0.59,3.03,1.26,4.12c1.81,1.07,4.14,1.05,5.58,2.79c-90.32,0-180.64-0.03-270.97,0.1
			c-3.47,0-4.39-0.73-4.05-4.12c0.36-3.62,0.08-7.31,0.08-10.97c2.87,0.17,5.75,0.49,8.62,0.49c68.42,0.03,136.84,0.02,205.26,0.02
			c1.33,0,2.66,0.03,3.99-0.02c0.99-0.04,2.19-0.07,2.34-1.32c0.16-1.38-0.79-2.14-2.09-2.3c-0.99-0.12-1.99-0.04-2.99-0.04
			c-69.92,0-139.84,0.01-209.76-0.03c-1.94,0-3.7,0.32-5.38,1.2c0-23.99,0-47.98,0-71.97c0.27-0.21,0.58-0.28,0.92-0.23
			c1.12,2.24,3.2,1.33,4.88,1.36c6.83,0.11,13.66,0.04,20.49,0.04c9.99,0,9.9,0,9.89-10.17c-0.04-32.65-0.02-65.3,0.02-97.95
			c0-1.01-0.7-2.37,1.08-3.13c1.24,1.18,2.57,2.39,3.85,3.66c26.51,26.5,53.02,53,79.53,79.5c4.47,4.47,4.63,4.51,9.04,0.03
			c21.6-21.97,43.16-43.98,64.76-65.95c5.78-5.88,11.64-11.67,18.33-18.36c0,2.73,0,4.16,0,5.59c0,33.48,0.06,66.97-0.07,100.45
			c-0.02,4.64,1.31,6.65,6.28,6.42c7.64-0.34,15.33-0.35,22.97,0c4.84,0.23,6.65-1.61,6.51-6.26c-0.22-7.49-0.34-14.98-0.34-22.47
			c-0.03-54.14,0-108.28-0.07-162.42c0-2.35,1.43-5.84-0.91-6.82c-1.88-0.79-3.02,2.84-4.57,4.41
			c-37.23,37.67-74.39,75.42-111.57,113.13c-5.67,5.75-6.38,5.72-11.93,0.12c-27.1-27.32-54.38-54.45-81.2-82.04
			c-11.7-12.04-24.55-22.99-34.8-36.43c-1.32-1.73-1.7-0.13-2.06,0.92c-0.33-0.11-0.66-0.21-0.99-0.32
			c0-72.97,0.03-145.94-0.1-218.92c-0.01-3.42,0.67-4.09,4.1-4.09c198.62,0.11,397.24,0.09,595.85,0.09c-2.24,1-4.55,1.88-6.72,3.03
			c-10.11,5.38-14.96,16.21-12.3,27.28c2.54,10.57,11.65,17.89,22.7,18.23c12.24,0.38,21.93-6.11,25.26-16.94
			c3.41-11.08-0.61-22.07-10.43-28.04c-2.36-1.43-5.01-2.4-7.52-3.57c128.47,0,256.94,0.02,385.41-0.09c3.75,0,4.6,0.84,4.59,4.59
			c-0.12,113.12-0.09,226.25-0.09,339.37c-1.52-5.48-2.66-11.1-4.62-16.43c-15.47-42.03-59.25-52.78-91.95-45.03
			c-11.15,2.64-20.99,7.86-30.32,15.52c-0.12-1.54-0.24-2.3-0.24-3.06c-0.01-21.98-0.1-43.96,0.08-65.94
			c0.03-4.04-1.28-5.23-5.18-5.09c-7.98,0.29-15.98,0.24-23.97,0.21c-6.26-0.02-6.28-0.1-6.28,6.29c0,61.27,0,122.55,0,183.82
			c0,0.83,0.05,1.67-0.01,2.5c-0.23,3.08,0.85,4.49,4.25,4.41c8.82-0.2,17.65-0.18,26.48-0.01c3.43,0.07,4.88-1.03,4.67-4.57
			c-0.22-3.69-0.05-7.4-0.05-11.92c18.42,16.37,38.98,21.81,62.2,19.48c32.9-3.3,54.17-21.42,62.05-53.48
			C1458.91,652.1,1458.61,648.16,1460.9,644.96z M1009.18,286.64c-1.25,1.05-1.73,1.42-2.18,1.84
			c-31.42,29.75-62.85,59.48-94.21,89.27c-3.15,2.99-5.63,4.52-9.58,0.76c-27.01-25.69-54.19-51.2-81.33-76.76
			c-5.23-4.93-10.48-9.83-16.29-15.27c-0.21,1.62-0.36,2.23-0.36,2.85c-0.07,61.28-0.11,122.57-0.2,183.85
			c0,3.1,1.19,5.29,3.54,7.27c10.58,8.88,21.03,17.92,31.59,26.82c1.32,1.11,2.35,3.53,4.4,2.67c2.11-0.88,0.94-3.27,0.94-4.93
			c0.07-39.8,0.04-79.6,0.08-119.41c0-1.72-0.56-3.56,0.75-5.54c0.95,0.83,1.81,1.54,2.63,2.29c17.71,16.38,35.43,32.75,53.13,49.15
			c4.67,4.33,6.1,4.52,10.04,0.84c15.32-14.31,30.61-28.65,45.97-42.92c3.42-3.17,6.53-6.74,11.11-9.6c0,44.07,0,87.43,0,131.49
			c2.05-1.6,3.62-2.74,5.09-3.99c9.89-8.4,19.65-16.97,29.69-25.18c3.69-3.02,5.29-6.32,5.26-11.1
			c-0.14-31.64-0.07-63.28-0.07-94.93C1009.18,346.65,1009.18,317.18,1009.18,286.64z M818.55,710.42
			c13.55-0.19,25.9-1.51,37.84-5.51c26.1-8.73,47.95-28.48,49.29-66.44c0.88-24.98-9.46-49.21-37.38-63.13
			c-29.8-14.86-60.29-14.57-91.28-2.71c-49.91,19.1-57.79,88.48-16.96,119.9C777.64,706.05,798.03,710.13,818.55,710.42z
			 M1122.88,510.17c-27.99,0-55.98-0.01-83.97,0c-6.1,0-7.03,0.87-6.72,6.94c0.36,6.99,0.56,13.97-0.04,20.95
			c-0.37,4.25,1.35,6,5.73,5.96c19.99-0.17,39.98-0.15,59.97-0.19c6.86-0.01,6.97,0.1,6.95,7.03
			c-0.09,50.14-0.18,100.27-0.28,150.41c-0.01,3.3,0.93,5.22,4.9,5.05c7.82-0.32,15.65-0.2,23.48-0.22
			c8.12-0.03,8.24-0.11,8.23-8.47c-0.05-48.97-0.11-97.95-0.16-146.92c-0.01-6.86,0.01-6.88,7.03-6.88
			c19.66-0.01,39.32-0.08,58.98,0.06c4.25,0.03,6.05-1.29,5.88-5.75c-0.27-7.15-0.1-14.32-0.06-21.49c0.03-6.09-0.3-6.49-6.46-6.49
			C1178.53,510.16,1150.71,510.17,1122.88,510.17z M961.19,590.38c0-6.54-0.22-11.69,0.07-16.81c0.23-4.06-1.47-5.25-5.23-5.13
			c-8.32,0.25-16.64,0.45-24.96,0.29c-3.73-0.07-4.95,1.1-4.94,4.82c0.09,42.63,0.1,85.25-0.01,127.88
			c-0.01,3.86,1.45,4.83,5.02,4.74c8.16-0.2,16.33-0.28,24.47,0.03c4.46,0.17,5.71-1.39,5.66-5.74c-0.21-17.65-0.15-35.3-0.07-52.95
			c0.11-23.61,9.19-37.95,28.46-44.99c9.86-3.61,19.86-3.4,29.92-0.73c2.99,0.79,6.11,1.66,5.96-3.45
			c-0.24-8.3-0.34-16.61-0.34-24.91c0-4.57-2.18-6.54-6.62-6.93c-8.71-0.76-17.28-0.05-25.71,2.14
			C980.2,571.94,970.24,579.39,961.19,590.38z M1235.12,636.62c-0.05,0-0.11,0-0.16,0c0,21.47,0.08,42.94-0.07,64.4
			c-0.03,4.14,1.36,5.61,5.5,5.49c8.15-0.23,16.32-0.29,24.46,0.02c4.53,0.17,5.83-1.67,5.66-5.85c-0.23-5.48-0.06-10.98-0.06-16.47
			c0-36.12,0-72.23,0-108.35c0-7.03-0.01-7.03-7.22-7.03c-7.32,0-14.67,0.35-21.96-0.12c-5.28-0.34-6.33,1.59-6.27,6.5
			C1235.27,595.67,1235.12,616.15,1235.12,636.62z M1253.01,551.16c12.73-0.01,22.91-10.09,22.94-22.71
			c0.04-12.73-9.9-22.73-22.76-22.92c-12.58-0.18-23.36,10.55-23.23,23.12C1230.09,541.41,1240.09,551.17,1253.01,551.16z
			 M1339.94,779.41c0,0.01,0,0.02,0,0.03c37.81,0,75.61,0,113.42,0.01c1.74,0,4.16,0.96,4.25-1.82c0.1-3.03-2.56-1.88-4.15-1.88
			c-75.28,0.02-150.55,0.08-225.83,0.14c-1.17,0-2.33-0.02-3.5,0.01c-0.99,0.03-2.09-0.01-2.24,1.37c-0.16,1.55,0.85,2.03,2.14,2.09
			c1.33,0.06,2.66,0.04,4,0.04C1265.33,779.42,1302.63,779.41,1339.94,779.41z"/>
		<path class="st2" d="M1460.9,644.96c-2.29,3.2-1.99,7.14-2.87,10.72c-7.88,32.06-29.16,50.18-62.05,53.48
			c-23.22,2.33-43.78-3.12-62.2-19.48c0,4.52-0.17,8.23,0.05,11.92c0.21,3.54-1.24,4.63-4.67,4.57c-8.82-0.18-17.65-0.19-26.48,0.01
			c-3.4,0.08-4.48-1.34-4.25-4.41c0.06-0.83,0.01-1.66,0.01-2.5c0-61.27,0-122.55,0-183.82c0-6.39,0.01-6.31,6.28-6.29
			c7.99,0.03,15.99,0.08,23.97-0.21c3.9-0.14,5.21,1.05,5.18,5.09c-0.18,21.98-0.09,43.96-0.08,65.94c0,0.76,0.11,1.52,0.24,3.06
			c9.32-7.66,19.17-12.88,30.32-15.52c32.69-7.74,76.47,3.01,91.95,45.03c1.96,5.32,3.1,10.94,4.62,16.43
			C1460.9,634.3,1460.9,639.63,1460.9,644.96z M1377.87,679.22c2.66-0.16,5.34-0.14,7.96-0.52c2.62-0.39,5.22-1.05,7.76-1.82
			c24.06-7.26,37.06-31.48,28.28-53.09c-4.74-11.67-13.3-19.87-25.1-24.23c-13.46-4.97-27.11-4.91-40.5,0.32
			c-20.21,7.9-28.69,31.54-19.7,54.33C1342.71,669.8,1358.11,679.08,1377.87,679.22z"/>
		<path class="st3" d="M1071,285.09c2.51,1.18,5.16,2.14,7.52,3.57c9.82,5.97,13.84,16.95,10.43,28.04
			c-3.33,10.82-13.02,17.32-25.26,16.94c-11.05-0.34-20.16-7.66-22.7-18.23c-2.66-11.07,2.19-21.91,12.3-27.28
			c2.16-1.15,4.48-2.03,6.72-3.03C1063.67,285.09,1067.33,285.09,1071,285.09z"/>
		<path class="st2" d="M460.15,776.91c1.68-0.89,3.44-1.21,5.38-1.2c69.92,0.04,139.84,0.03,209.76,0.03c1,0,2.01-0.08,2.99,0.04
			c1.3,0.15,2.25,0.92,2.09,2.3c-0.15,1.25-1.35,1.28-2.34,1.32c-1.33,0.05-2.66,0.02-3.99,0.02c-68.42,0-136.84,0.01-205.26-0.02
			c-2.88,0-5.75-0.32-8.62-0.49C460.15,778.24,460.15,777.57,460.15,776.91z"/>
		<path class="st2" d="M987.02,793.9c-2.72-2.32-3.62-5.26-3.13-8.75c0.91-6.45,0.71-12.95,0.56-19.42
			c-0.08-3.55,0.34-5.52,4.83-5.14c3.92,0.33,7.94-0.29,11.92,0.19c9.33,1.12,15.01,7.51,14.81,16.77
			c-0.19,8.75-5.88,14.53-15.07,15.41c-1,0.1-2.41-0.72-2.93,0.95C994.35,793.9,990.68,793.9,987.02,793.9z M990.78,777.23
			c-0.13,0-0.27,0.01-0.4,0.01c0.18,2.48,0.34,4.96,0.54,7.44c0.13,1.58,0.65,2.81,2.38,3.39c5.25,1.76,14.07-2.29,15.85-7.38
			c2.92-8.35-2.72-14.9-12.6-14.62c-5.79,0.17-6.36,0.85-5.8,6.68C990.91,774.24,990.78,775.74,990.78,777.23z"/>
		<path class="st2" d="M1151.98,793.9c-0.61-1.43-2.14-1.35-3.26-1.91c-7.61-3.78-11-11.67-8.57-20.11
			c2.16-7.49,10.38-12.64,18.68-11.68c9.15,1.05,15.45,7.17,15.99,15.55c0.53,8.24-4.54,15.09-12.75,17.21
			c-0.76,0.2-1.69-0.04-2.09,0.95C1157.31,793.9,1154.64,793.9,1151.98,793.9z M1156.22,788.15c6.49,0.33,12.4-4.79,12.57-10.9
			c0.16-5.87-4.83-11.07-10.97-11.42c-6.45-0.37-11.77,4.35-11.99,10.66C1145.6,782.95,1149.94,787.82,1156.22,788.15z"/>
		<path class="st2" d="M735.08,793.9c-1.45-1.74-3.78-1.72-5.58-2.79c-1.85-1.1-2.17-2.39-1.26-4.12c0.95-1.81,2.32-2.2,4.09-1.02
			c3.5,2.34,7.34,2.9,11.43,2.06c2.08-0.43,3.99-1.22,4.06-3.64c0.06-2.19-1.71-3.03-3.54-3.56c-3.34-0.96-6.72-1.81-10.04-2.86
			c-3.68-1.16-5.95-3.65-6.11-7.6c-0.16-4.1,1.88-6.95,5.56-8.62c5.49-2.49,10.94-2.09,16.41,0.21c1.9,0.8,2.7,1.96,1.73,3.84
			c-0.85,1.64-2.11,2.45-4.08,1.42c-2.89-1.51-6.02-1.82-9.21-1.27c-1.92,0.33-3.58,1.19-3.81,3.35c-0.24,2.24,1.25,3.24,3.21,3.72
			c2.9,0.71,5.81,1.36,8.68,2.18c5.37,1.53,7.63,4.36,7.47,9.1c-0.16,4.74-2.94,7.58-8.54,8.62c-0.68,0.13-1.28,0.18-1.46,0.98
			C741.08,793.9,738.08,793.9,735.08,793.9z"/>
		<path class="st2" d="M905.04,793.9c-7.99-3.7-10.61-10.18-9.89-18.6c0.32-3.8,0.12-7.66,0.03-11.48c-0.05-2.35,1.11-3.33,3.3-3.4
			c2.58-0.09,2.91,1.61,2.93,3.62c0.03,4.98-0.03,9.97,0.18,14.95c0.27,6.25,3.01,9.13,8.25,9.06c5.14-0.07,7.91-3.06,8.16-9.26
			c0.18-4.65,0.14-9.33,0-13.98c-0.07-2.5,0.32-4.34,3.31-4.33c2.88,0.01,2.93,2,2.91,4.13c-0.05,3.82-0.22,7.66,0.04,11.47
			c0.59,8.74-2.33,15.11-11.21,17.82C910.37,793.9,907.71,793.9,905.04,793.9z"/>
		<path class="st2" d="M822.06,793.9c-2.07-5.63-0.57-11.47-0.98-17.2c-0.14-1.98-0.14-4,0-5.98c0.25-3.4-1.07-5.02-4.6-4.66
			c-1.32,0.13-2.66,0.01-3.99,0.01c-1.6,0-2.44-0.7-2.45-2.4c-0.01-1.76,0.52-2.89,2.5-2.91c7.47-0.1,14.94-0.25,22.42-0.33
			c1.88-0.02,3.2,0.62,3.11,2.9c-0.09,2.21-1.45,2.83-3.27,2.91c-0.98,0.04-1.97-0.16-2.95-0.3c-3.76-0.54-5.09,1.23-4.98,4.83
			c0.18,5.81-0.04,11.64,0.27,17.44c0.15,2.77-0.76,4.48-3.08,5.68C823.39,793.9,822.73,793.9,822.06,793.9z"/>
		<path class="st4" d="M461.07,704.7c-0.34-0.05-0.64,0.03-0.92,0.23c0-65.64,0-131.28,0-196.93c0.33,0.11,0.66,0.21,0.99,0.32
			c0.07,1.82,0.2,3.65,0.2,5.48c-0.03,52.47-0.07,104.95-0.13,157.42C461.2,682.39,461.12,693.54,461.07,704.7z"/>
		<path class="st2" d="M1076,793.9c-0.84-1.64-1.1-3.33-1.08-5.2c0.11-8.12,0.13-16.24-0.02-24.36c-0.04-2.43,0.54-3.83,3.12-3.9
			c2.85-0.08,3.02,1.72,3,3.94c-0.08,7.95-0.19,15.91,0.06,23.86c0.08,2.76-0.78,4.47-3.09,5.66
			C1077.33,793.9,1076.66,793.9,1076,793.9z"/>
		<path class="st2" d="M1009.18,286.64c0,30.54,0,60.01,0,89.49c0,31.64-0.07,63.28,0.07,94.93c0.02,4.77-1.58,8.08-5.26,11.1
			c-10.04,8.22-19.8,16.78-29.69,25.18c-1.47,1.25-3.04,2.38-5.09,3.99c0-44.06,0-87.42,0-131.49c-4.58,2.87-7.7,6.43-11.11,9.6
			c-15.36,14.27-30.64,28.61-45.97,42.92c-3.94,3.68-5.37,3.49-10.04-0.84c-17.69-16.4-35.41-32.77-53.13-49.15
			c-0.82-0.76-1.68-1.47-2.63-2.29c-1.31,1.98-0.74,3.82-0.75,5.54c-0.04,39.8-0.02,79.6-0.08,119.41c0,1.66,1.17,4.06-0.94,4.93
			c-2.05,0.85-3.08-1.56-4.4-2.67c-10.56-8.9-21.01-17.94-31.59-26.82c-2.36-1.98-3.55-4.17-3.54-7.27
			c0.09-61.28,0.14-122.57,0.2-183.85c0-0.61,0.15-1.23,0.36-2.85c5.81,5.44,11.06,10.34,16.29,15.27
			c27.13,25.56,54.31,51.07,81.33,76.76c3.95,3.76,6.43,2.23,9.58-0.76c31.36-29.8,62.8-59.53,94.21-89.27
			C1007.45,288.06,1007.94,287.69,1009.18,286.64z"/>
		<path class="st2" d="M461.07,704.7c0.05-11.16,0.13-22.31,0.15-33.47c0.06-52.47,0.1-104.95,0.13-157.42
			c0-1.83-0.13-3.65-0.2-5.48c0.36-1.05,0.74-2.65,2.06-0.92c10.25,13.44,23.1,24.39,34.8,36.43c26.82,27.59,54.1,54.73,81.2,82.04
			c5.56,5.6,6.26,5.63,11.93-0.12c37.18-37.72,74.34-75.47,111.57-113.13c1.55-1.57,2.69-5.2,4.57-4.41
			c2.35,0.99,0.91,4.47,0.91,6.82c0.07,54.14,0.04,108.28,0.07,162.42c0,7.49,0.12,14.98,0.34,22.47c0.14,4.65-1.67,6.49-6.51,6.26
			c-7.64-0.36-15.33-0.35-22.97,0c-4.96,0.22-6.29-1.78-6.28-6.42c0.13-33.48,0.07-66.97,0.07-100.45c0-1.43,0-2.85,0-5.59
			c-6.69,6.69-12.55,12.49-18.33,18.36c-21.6,21.97-43.16,43.98-64.76,65.95c-4.4,4.48-4.57,4.43-9.04-0.03
			c-26.51-26.5-53.02-53.01-79.53-79.5c-1.27-1.27-2.61-2.49-3.85-3.66c-1.78,0.76-1.08,2.12-1.08,3.13
			c-0.04,32.65-0.06,65.3-0.02,97.95c0.01,10.17,0.1,10.17-9.89,10.17c-6.83,0-13.66,0.06-20.49-0.04
			C464.27,706.03,462.18,706.94,461.07,704.7z"/>
		<path class="st2" d="M818.55,710.42c-20.51-0.29-40.91-4.37-58.49-17.89c-40.83-31.41-32.95-100.8,16.96-119.9
			c30.99-11.86,61.48-12.15,91.28,2.71c27.92,13.92,38.26,38.14,37.38,63.13c-1.34,37.96-23.19,57.71-49.29,66.44
			C844.45,708.91,832.09,710.23,818.55,710.42z M816.71,679.28c13.88,0.61,26.71-2.44,37.95-10.94
			c20.17-15.25,21.13-43.83,2.06-60.13c-20.41-17.44-52.6-17.57-73.19-0.29c-17.61,14.77-18.9,40.1-2.78,56.52
			C790.6,674.47,802.86,678.81,816.71,679.28z"/>
		<path class="st2" d="M1122.88,510.17c27.82,0,55.65-0.01,83.47,0c6.16,0,6.5,0.4,6.46,6.49c-0.04,7.16-0.21,14.33,0.06,21.49
			c0.17,4.46-1.63,5.78-5.88,5.75c-19.66-0.14-39.32-0.07-58.98-0.06c-7.02,0-7.04,0.01-7.03,6.88
			c0.05,48.97,0.11,97.95,0.16,146.92c0.01,8.36-0.11,8.45-8.23,8.47c-7.83,0.02-15.66-0.1-23.48,0.22
			c-3.97,0.16-4.91-1.76-4.9-5.05c0.1-50.14,0.2-100.27,0.28-150.41c0.01-6.94-0.1-7.04-6.95-7.03
			c-19.99,0.03-39.98,0.01-59.97,0.19c-4.38,0.04-6.1-1.71-5.73-5.96c0.6-6.98,0.4-13.96,0.04-20.95c-0.31-6.07,0.61-6.94,6.72-6.94
			C1066.9,510.16,1094.89,510.17,1122.88,510.17z"/>
		<path class="st2" d="M961.19,590.38c9.05-10.99,19.01-18.44,31.68-21.74c8.44-2.2,17-2.9,25.71-2.14
			c4.44,0.38,6.62,2.36,6.62,6.93c0,8.3,0.1,16.61,0.34,24.91c0.15,5.11-2.97,4.24-5.96,3.45c-10.06-2.67-20.05-2.88-29.92,0.73
			c-19.27,7.04-28.35,21.38-28.46,44.99c-0.08,17.65-0.14,35.3,0.07,52.95c0.05,4.34-1.2,5.91-5.66,5.74
			c-8.15-0.31-16.32-0.22-24.47-0.03c-3.56,0.09-5.03-0.88-5.02-4.74c0.11-42.63,0.1-85.25,0.01-127.88
			c-0.01-3.72,1.21-4.89,4.94-4.82c8.31,0.16,16.64-0.04,24.96-0.29c3.77-0.11,5.47,1.07,5.23,5.13
			C960.97,578.69,961.19,583.84,961.19,590.38z"/>
		<path class="st2" d="M1235.12,636.62c0-20.47,0.16-40.94-0.11-61.41c-0.06-4.91,0.99-6.85,6.27-6.5
			c7.29,0.47,14.64,0.12,21.96,0.12c7.21,0,7.22,0,7.22,7.03c0,36.12,0,72.23,0,108.35c0,5.49-0.17,10.99,0.06,16.47
			c0.17,4.18-1.13,6.02-5.66,5.85c-8.15-0.3-16.31-0.25-24.46-0.02c-4.14,0.12-5.53-1.35-5.5-5.49c0.15-21.47,0.07-42.94,0.07-64.4
			C1235.01,636.62,1235.06,636.62,1235.12,636.62z"/>
		<path class="st3" d="M1253.01,551.16c-12.91,0.02-22.92-9.75-23.05-22.5c-0.13-12.57,10.65-23.3,23.23-23.12
			c12.86,0.18,22.8,10.19,22.76,22.92C1275.91,541.07,1265.74,551.14,1253.01,551.16z"/>
		<path class="st2" d="M1339.94,779.41c-37.31,0-74.61,0-111.92,0c-1.33,0-2.67,0.03-4-0.04c-1.29-0.06-2.3-0.54-2.14-2.09
			c0.14-1.38,1.24-1.34,2.24-1.37c1.16-0.03,2.33-0.01,3.5-0.01c75.28-0.06,150.55-0.12,225.83-0.14c1.59,0,4.25-1.15,4.15,1.88
			c-0.09,2.78-2.51,1.82-4.25,1.82c-37.81-0.02-75.61-0.01-113.42-0.01C1339.94,779.44,1339.94,779.43,1339.94,779.41z"/>
		<path class="st1" d="M1377.87,679.22c-19.76-0.14-35.16-9.42-41.3-25.01c-8.98-22.79-0.51-46.43,19.7-54.33
			c13.39-5.23,27.04-5.3,40.5-0.32c11.8,4.36,20.36,12.56,25.1,24.23c8.79,21.61-4.21,45.83-28.28,53.09
			c-2.54,0.77-5.14,1.43-7.76,1.82C1383.21,679.09,1380.53,679.07,1377.87,679.22z"/>
		<path class="st1" d="M990.78,777.23c0-1.49,0.12-2.99-0.02-4.47c-0.56-5.82,0-6.51,5.8-6.68c9.87-0.28,15.52,6.27,12.6,14.62
			c-1.78,5.08-10.6,9.14-15.85,7.38c-1.73-0.58-2.26-1.82-2.38-3.39c-0.2-2.48-0.36-4.96-0.54-7.44
			C990.52,777.24,990.65,777.23,990.78,777.23z"/>
		<path class="st1" d="M1156.22,788.15c-6.28-0.32-10.62-5.2-10.39-11.67c0.23-6.31,5.54-11.03,11.99-10.66
			c6.14,0.35,11.13,5.55,10.97,11.42C1168.63,783.35,1162.72,788.48,1156.22,788.15z"/>
		<path class="st1" d="M816.71,679.28c-13.85-0.48-26.12-4.81-35.96-14.84c-16.12-16.42-14.83-41.75,2.78-56.52
			c20.59-17.27,52.78-17.14,73.19,0.29c19.07,16.29,18.11,44.87-2.06,60.13C843.42,676.84,830.59,679.89,816.71,679.28z"/>
	</g>
</g>
</svg>
