<svg xmlns="http://www.w3.org/2000/svg" viewBox="450 280 1020 515" role="img" aria-label="MorTib® Studio">
  <path fill="#11100e" d="M1460.9,644.96c0,48.31-0.05,96.63,0.1,144.94c0.01,3.42-0.67,4.1-4.1,4.09
		c-98.98-0.12-197.95-0.1-296.93-0.1c0.39-0.99,1.33-0.75,2.09-0.95c8.21-2.12,13.28-8.97,12.75-17.21
		c-0.54-8.37-6.83-14.5-15.99-15.55c-8.3-0.95-16.52,4.19-18.68,11.68c-2.43,8.45,0.96,16.34,8.57,20.11
		c1.12,0.56,2.65,0.47,3.26,1.91c-24.66,0-49.32,0-73.98,0c2.31-1.19,3.17-2.89,3.09-5.66c-0.24-7.95-0.13-15.91-0.06-23.86
		c0.02-2.23-0.15-4.02-3-3.94c-2.59,0.07-3.17,1.47-3.12,3.9c0.15,8.12,0.13,16.24,0.02,24.36c-0.02,1.88,0.24,3.57,1.08,5.2
		c-25.99,0-51.99,0-77.98,0c0.52-1.68,1.93-0.86,2.93-0.95c9.19-0.87,14.88-6.65,15.07-15.41c0.2-9.26-5.47-15.65-14.81-16.77
		c-3.98-0.48-8.01,0.14-11.92-0.19c-4.49-0.38-4.91,1.6-4.83,5.14c0.14,6.48,0.35,12.98-0.56,19.42c-0.49,3.5,0.4,6.44,3.13,8.75
		c-24.66,0-49.32,0-73.98,0c8.88-2.71,11.8-9.08,11.21-17.82c-0.26-3.81-0.08-7.65-0.04-11.47c0.03-2.12-0.02-4.12-2.91-4.13
		c-2.99-0.01-3.38,1.83-3.31,4.33c0.14,4.66,0.18,9.33,0,13.98c-0.24,6.2-3.01,9.2-8.16,9.26c-5.23,0.07-7.98-2.82-8.25-9.06
		c-0.22-4.98-0.15-9.97-0.18-14.95c-0.01-2.01-0.35-3.71-2.93-3.62c-2.19,0.08-3.35,1.05-3.3,3.4c0.08,3.83,0.29,7.68-0.03,11.48
		c-0.72,8.42,1.9,14.89,9.89,18.6c-26.99,0-53.99,0-80.98,0c2.32-1.2,3.23-2.91,3.08-5.68c-0.32-5.8-0.1-11.63-0.27-17.44
		c-0.05-2.06-0.06-4.14-3.01-4.08c-2.7,0.05-3.23,1.57-3.18,3.95c-0.14,8.12-0.13,16.24-0.02,24.36c-0.02,1.88,0.24,3.57,1.08,5.2
		c-33.65,0-67.31,0-100.96,0c0.32-0.87,0.99-0.75,1.57-0.86c9.33-1.85,14.89-8.4,14.79-17.13c-0.1-8.5-5.95-15.05-14.95-16.03
		c-6.84-0.74-13.79,0.48-20.67,0.34c-2.48-0.3-3.52,1.02-3.41,3.43c0.23,5.15,0.43,10.31,0-15.45c-0.45,5.43,1.83,10.51,7.03,13.68
		c0.69,0.42,1.6,0.59,2.02,1.81c-24.99,0-49.99,0-74.98,0c2.19-1.12,3.02-2.73,2.94-5.35c-0.23-7.95-0.12-15.91-0.06-23.86
		c-0.02-2.23,0.16-4.02-3.01-3.94c-2.59-0.07-3.17-1.47-3.12-3.9c-0.15-8.12-0.13-16.24-0.02-24.36c0.02-1.88,0.24-3.57-1.08-5.2
		c-24.66,0-49.32,0-73.98,0c1.07-0.75,2.16-1.5,3.22-2.26c6.26-4.48,9.08-11.08,7.74-18.73c-1.34-7.66-7.14-12.75-14.82-13.12
		c-9.08-0.44-18.23-0.02-27.35-0.08c-2.46-0.02-3.23,0.96-3.19,3.37c0.13,7.66,0.18,15.33,0,22.99c-0.16,6.67,2.2,11.55,8.27,13.79
		c-25.99,0-51.99,0-77.98,0c0.39-0.99,1.33-0.75,2.09-0.95c-8.21,2.12-13.28,8.97-12.75,17.21c0.54,8.37,6.83,14.5,15.99,15.55
		c8.3,0.95,16.52-4.19,18.68-11.68c2.43-8.45-0.96-16.34-8.57-20.11c-1.12-0.56-2.65-0.47-3.26-1.91c24.99,0,49.99,0,74.98,0
		c-2.31,1.19-3.17,2.89-3.09,5.66c0.24,7.95,0.13,15.91,0.06,23.86c-0.02,2.23,0.15,4.02,3,3.94c2.59-0.07,3.17-1.47,3.12-3.9
		c-0.15-8.12-0.13-16.24-0.02-24.36c0.02-1.88-0.24-3.57-1.08-5.2c-24.33,0-48.65,0-72.98,0c0.02-48.31,0.03-96.63,0.05-144.94
		c0-2.41,0.45-3.87,3.16-3.8c7.22,0.19,14.45,0.19,21.67,0.02c3.08-0.07,4.02-1.39,3.94-4.22c-0.18-6.15-0.1-12.31,0.06-18.46
		c0.06-2.16-0.34-3.72-2.92-3.62c-2.28,0.09-3.41,1.15-3.37,3.51c0.08,4.16,0.3,8.33-0.03,12.48c-0.62,7.74,2.02,13.62,9.37,17.06
		c1.55,0.72,3.31,0.92,4.04,2.64c63.64,0,127.27,0,190.91,0c-0.64-1.63-2.17-1.07-3.23-1.16c-9.14-0.81-14.77-6.52-15.01-15.17
		c-0.26-9.48,5.32-16.03,14.88-17.11c3.96-0.45,7.98,0.15,11.87-0.2c4.49-0.41,4.89,1.58,4.81,5.13c-0.14,6.48-0.35,12.98,0.56,19.42
		c0.51,3.65-0.37,6.67-3.26,9.08c24.66,0,49.32,0,73.98,0c-0.39,0.99-1.33,0.75-2.09,0.95c-8.21,2.12-13.28,8.97-12.75,17.21
		c0.54,8.37,6.83,14.5,15.99,15.55c8.3,0.95,16.52-4.19,18.68-11.68c2.43-8.45-0.96-16.34-8.57-20.11c-1.12-0.56-2.65-0.47-3.26-1.91
		c24.99,0,49.99,0,74.98,0c-2.31,1.19-3.17,2.89-3.09,5.66c0.24,7.95,0.13,15.91,0.06,23.86c-0.02,2.23,0.15,4.02,3,3.94
		c2.59-0.07,3.17-1.47,3.12-3.9c-0.15-8.12-0.13-16.24-0.02-24.36c0.02-1.88-0.24-3.57-1.08-5.2c25.99,0,51.99,0,77.98,0
		c-0.52,1.68-1.93,0.86-2.93,0.95c-9.19,0.87-14.88,6.65-15.07,15.41c-0.2,9.26,5.47,15.65,14.81,16.77
		c3.98,0.48,8.01-0.14,11.92,0.19c4.49,0.38,4.91-1.6,4.83-5.14c-0.14-6.48-0.35-12.98,0.56-19.42c0.49-3.5-0.4-6.44-3.13-8.75
		c24.66,0,49.32,0,73.98,0c-8.88,2.71-11.8,9.08-11.21,17.82c0.26,3.81,0.08,7.65,0.04,11.47c-0.03,2.12,0.02,4.12,2.91,4.13
		c2.99,0.01,3.38-1.83,3.31-4.33c-0.14-4.66-0.18-9.33,0-13.98c0.24-6.2,3.01-9.2,8.16-9.26c5.23-0.07,7.98,2.82,8.25,9.06
		c0.22,4.98,0.15,9.97,0.18,14.95c0.01,2.01,0.35,3.71,2.93,3.62c2.19-0.08,3.35-1.05,3.3-3.4c-0.08-3.83-0.29-7.68,0.03-11.48
		c0.72-8.42-1.9-14.89-9.89-18.6c26.99,0,53.99,0,80.98,0c-2.32,1.2-3.23,2.91-3.08,5.68c0.32,5.8,0.1,11.63,0.27,17.44
		c0.05,2.06,0.06,4.14,3.01,4.08c2.7-0.05,3.23-1.57,3.18-3.95c-0.14-8.12-0.13-16.24-0.02-24.36c0.02-1.88-0.24-3.57-1.08-5.2
		c33.65,0,67.31,0,100.96,0c-0.32,0.87-0.99,0.75-1.57,0.86c-9.33,1.85-14.89,8.4-14.79,17.13c0.1,8.5,5.95,15.05,14.95,16.03
		c6.84,0.74,13.79-0.48,20.67,0.34c2.48,0.3,3.52-1.02,3.41-3.43c-0.23-5.15-0.43-10.31,0-15.45c-0.45,5.43,1.83,10.51,7.03,13.68
		c0.69-0.42,1.6-0.59,2.02,1.81c24.99,0,49.99,0,74.98,0c-2.19,1.12-3.02,2.73-2.94-5.35c-0.23-7.95-0.12-15.91-0.06-23.86
		c-0.02-2.23,0.16-4.02,3.01-3.94c2.59-0.07,3.17-1.47,3.12-3.9c-0.15-8.12-0.13-16.24-0.02-24.36c0.02-1.88-0.24-3.57-1.08-5.2
		c24.66,0,49.32,0,73.98,0c-1.07,0.75-2.16,1.5-3.22,2.26c-6.26,4.48-9.08,11.08-7.74,18.73c1.34,7.66,7.14,12.75,14.82,13.12
		c9.08,0.44,18.23,0.02,27.35,0.08c2.46,0.02,3.23-0.96,3.19-3.37c-0.13-7.66-0.18-15.33,0-22.99c0.16-6.67-2.2-11.55-8.27-13.79
		c25.99,0,51.99,0,77.98,0c-0.39,0.99-1.33,0.75-2.09-0.95c-8.21,2.12-13.28,8.97-12.75,17.21c0.54,8.37,6.83,14.5,15.99,15.55
		c8.3,0.95,16.52-4.19,18.68-11.68c2.43-8.45-0.96-16.34-8.57-20.11c-1.12-0.56-2.65-0.47-3.26-1.91c24.99,0,49.99,0,74.98,0
		c-2.31,1.19-3.17,2.89-3.09,5.66c0.24,7.95,0.13,15.91,0.06,23.86c-0.02,2.23,0.15,4.02,3,3.94c2.59-0.07,3.17-1.47,3.12-3.9
		c-0.15-8.12-0.13-16.24-0.02-24.36c0.02-1.88-0.24-3.57-1.08-5.2C1412.25,644.96,1436.57,644.96,1460.9,644.96z"/>
  <path fill="#CDE241" d="M1236.61,554.02c-13.05-0.04-22.53-9.38-22.57-22.42c-0.04-12.89,9.86-22.95,22.56-22.9
		c13.68,0.05,23.28,9.71,23.15,23.3C1259.64,544.42,1249.41,554.06,1236.61,554.02z"/>
</svg>
