<?xml version="1.0" encoding="utf-8"?>
<!-- Generator: Adobe Illustrator 25.4.1, SVG Export Plug-In . SVG Version: 6.00 Build 0)  -->
<svg version="1.1" id="Layer_1" xmlns="http://www.w3.org/2000/svg" xmlns:xlink="http://www.w3.org/1999/xlink" x="0px" y="0px"
	 viewBox="450 280 1020 515" style="enable-background:new 450 280 1020 515;" xml:space="preserve">
<style type="text/css">
	.st0{display:none;fill:#FAF6F0;}
	.st1{fill:#FDFDFD;}
	.st2{fill:#CDE241;}
</style>
<path class="st0" d="M959.5,982.91c-293.97,0-587.94-0.01-881.91,0.09c-3.75,0-4.59-0.84-4.59-4.59c0.1-292.61,0.1-585.21,0-877.82
	c0-3.75,0.84-4.59,4.59-4.59c588.27,0.1,1176.54,0.1,1764.81,0c3.75,0,4.59,0.84,4.59,4.59c-0.1,292.61-0.1,585.21,0,877.82
	c0,3.75-0.84,4.59-4.59,4.59C1548.1,982.9,1253.8,982.91,959.5,982.91z M684.56,588.37c0.45,0.11,0.9,0.22,1.34,0.33
	c0,2.56,0,5.11,0,7.67c0.03,32.16,0.1,64.32,0,96.48c-0.01,3.21,0.74,4.22,4.07,4.13c8.99-0.24,18-0.2,26.99-0.02
	c2.82,0.05,3.71-0.71,3.66-3.6c-0.16-9.16,0-18.33,0-27.49c0.01-45.66-0.06-91.31,0.1-136.97c0.01-4.19-1.13-5.37-5.26-5.18
	c-7.48,0.34-15,0.2-22.49,0.08c-2.24-0.04-3.6,0.61-4.9,2.51c-22.7,33.1-45.49,66.15-68.26,99.21c-3.55,5.15-7.11,10.29-10.86,15.7
	c-1.06-1.43-1.76-2.34-2.42-3.28c-25.6-36.76-51.23-73.49-76.71-110.33c-1.94-2.8-3.82-4-7.22-3.88
	c-7.66,0.27-15.33,0.26-22.99,0.08c-2.94-0.07-3.63,0.91-3.59,3.69c0.15,10,0.05,19.99,0.05,29.99
	c0.01,44.82,0.06,89.65-0.04,134.47c-0.01,3.76,0.8,5.21,4.92,5.04c8.32-0.36,16.67-0.33,24.99-0.01c3.93,0.15,4.96-0.89,4.94-4.89
	c-0.16-33.49-0.07-66.98-0.01-100.47c0-1.16-0.78-2.61,0.9-3.75c25.48,35.96,50.91,71.87,76.59,108.12
	C634.07,659.68,659.31,624.03,684.56,588.37z M818.35,301.46c0,2.69,0,3.81,0,4.94c0,52.82,0.11,105.64-0.17,158.46
	c-0.03,6.56,1.21,11.4,6.87,15.14c3.72,2.46,6.79,5.87,10.2,8.81c7.25,6.25,14.52,12.46,22.84,19.6c0-37.81,0-74.24,0-111.71
	c20.27,19.07,39.75,37.24,58.99,55.65c2.85,2.73,4.12,2.13,6.59-0.24c17.27-16.65,34.7-33.14,52.09-49.67
	c1.85-1.76,3.79-3.41,6.59-5.93c0,37.81,0,74.3,0,111.7c12.9-11.27,25.01-21.94,37.24-32.47c1.8-1.55,1.98-3.22,1.98-5.27
	c-0.03-54.49-0.03-108.97-0.06-163.46c0-1.42,0.48-2.99-0.75-4.27c-0.49,0.15-1.1,0.16-1.41,0.46
	c-31.87,30.54-63.74,61.08-95.5,91.73c-2.66,2.57-4.18,2.93-7.04,0.17c-17.86-17.24-35.93-34.27-53.93-51.36
	C848.39,329.99,833.91,316.25,818.35,301.46z M1315.48,681.61c7.82,9.05,16.71,13.4,26.51,15.92c16.37,4.22,32.72,3.49,48.81-1.47
	c22.66-6.99,35.96-22.47,40.43-45.64c2.66-13.81,2.13-27.58-1.64-41.08c-4.56-16.31-14.64-28.38-30.14-35.26
	c-17.56-7.79-35.95-9.36-54.75-5.36c-10.9,2.32-20.39,7.45-29.15,16.02c0-3.65,0-6.1,0-8.56c0-16.16-0.2-32.31,0.13-48.46
	c0.09-4.62-1.33-5.56-5.59-5.38c-7.98,0.34-15.99,0.23-23.98-0.01c-3.33-0.1-4.19,0.9-4.15,4.21c0.18,14.82,0.06,29.64,0.06,44.47
	c-0.01,40.3-0.03,80.61,0.02,120.91c0,2.18-1.24,5.15,3.21,5.03c8.99-0.24,17.99-0.17,26.98-0.01c2.75,0.05,3.42-0.98,3.3-3.49
	C1315.35,690.03,1315.48,686.57,1315.48,681.61z M821.79,700.19c6.51,0.03,12.98-0.44,19.42-1.4c36.38-5.39,57.14-26.95,59.42-61.71
	c2.06-31.46-15.07-56.27-45.15-65.61c-17.71-5.5-35.75-6.15-53.89-3.25c-16.27,2.6-31.2,8.55-42.71,20.92
	c-14.96,16.06-17.97,35.67-15.14,56.39c3.29,24.06,17.62,39.55,39.84,48.28C795.86,698.65,808.71,700.08,821.79,700.19z
	 M1116.35,523.86c0,0.01,0,0.02,0,0.03c-26.16,0-52.31,0.07-78.47-0.08c-3.54-0.02-4.51,1.03-4.39,4.47
	c0.25,6.82,0.26,13.66-0.01,20.48c-0.14,3.49,0.89,4.47,4.41,4.44c18.66-0.16,37.32,0.07,55.98-0.12c3.93-0.04,4.93,0.98,4.92,4.95
	c-0.12,44.65,0.01,89.29-0.07,133.94c-0.01,3.7,0.58,5.25,4.77,5.04c7.64-0.39,15.32-0.11,22.99-0.13c6.83-0.02,6.9-0.03,6.9-6.85
	c0.01-43.98,0.03-87.96-0.11-131.94c-0.01-3.9,1.02-5.03,4.96-5c18.82,0.17,37.65-0.04,56.48,0.05c2.99,0.02,4.1-0.65,3.99-3.84
	c-0.23-6.82-0.25-13.67,0.03-20.48c0.16-3.81-0.81-5.1-4.9-5.07C1168,523.95,1142.17,523.86,1116.35,523.86z M954.44,591.72
	c0-7-0.15-12.93,0.06-18.84c0.11-3.12-0.97-3.91-4.01-3.84c-8.49,0.21-16.98,0.17-25.47,0c-3.05-0.06-4.32,0.55-4.31,4.04
	c0.14,40.12,0.14,80.24,0.06,120.36c-0.01,2.96,1,3.57,3.7,3.52c8.49-0.15,16.99-0.3,25.47,0.07c4.36,0.19,5.44-0.94,5.45-5.41
	c0.03-17.63-0.89-35.3,0.54-52.9c1.18-14.6,7.15-26.62,20.56-33.84c12.18-6.57,25.02-7.61,38.15-3.38c3.46,1.12,3.87,0.19,3.8-2.93
	c-0.18-8.49-0.25-16.98-0.02-25.47c0.08-3.22-1.12-4.28-4.08-4.75C990.41,564.55,970.8,571.9,954.44,591.72z M1253.43,632.98
	c0.01,0,0.01,0,0.02,0c0-19.99-0.05-39.98,0.06-59.96c0.02-2.93-0.62-4.08-3.84-4c-8.82,0.22-17.66,0.15-26.48,0
	c-2.68-0.04-3.8,0.51-3.79,3.53c0.09,40.14,0.09,80.28,0,120.43c-0.01,2.99,0.74,4.04,3.9,3.95c8.32-0.22,16.67-0.29,24.98,0.04
	c4.02,0.16,5.33-0.73,5.28-5.03C1253.29,672.29,1253.43,652.63,1253.43,632.98z M1101.05,321.92c-0.02-13.58-11.58-24.6-25.66-24.45
	c-14.96,0.16-25.76,10.68-26.01,25.33c-0.22,12.71,11.87,23.92,25.78,23.9C1089.7,346.69,1101.07,335.8,1101.05,321.92z
	 M1236.61,554.02c12.8,0.04,23.03-9.6,23.14-21.82c0.13-13.59-9.47-23.25-23.15-23.3c-12.7-0.05-22.6,10.01-22.56,22.9
	C1214.08,544.64,1223.56,553.98,1236.61,554.02z M993,763.69c-0.01,0-0.02,0-0.03,0c0,4.32,0.08,8.65-0.04,12.97
	c-0.05,1.97,0.65,2.63,2.58,2.57c4.65-0.12,9.33,0.18,13.96-0.2c8.5-0.7,13.95-6.8,14.05-15.25c0.1-8.14-5.09-14.06-13.62-14.98
	c-4.44-0.48-8.97-0.09-13.45-0.38c-3.03-0.2-3.63,1.13-3.5,3.79C993.14,756.04,993,759.87,993,763.69z M1220.24,762.36
	c-0.01,0.42-0.01,0.83-0.02,1.25c69.7,0,139.4,0,209.11,0c0-0.42,0-0.83,0-1.25C1359.63,762.36,1289.93,762.36,1220.24,762.36z
	 M1157.68,779.68c9.66,0.12,17.03-6.63,17.11-15.66c0.08-8.83-6.96-15.7-16.34-15.95c-9.68-0.26-17.05,6.32-17.28,15.45
	C1140.93,772.76,1147.86,779.55,1157.68,779.68z M935.55,759.62c-0.02,0-0.05,0-0.07,0c0-2.33,0.02-4.65-0.01-6.98
	c-0.03-2.08,0.62-4.36-3-4.3c-3.41,0.07-2.59,2.25-2.61,4.08c-0.07,4.65,0.09,9.31-0.13,13.95c-0.25,5.48-3.02,8.24-7.9,8.33
	c-5.06,0.09-8.05-2.83-8.31-8.49c-0.22-4.81-0.19-9.64-0.13-14.45c0.03-2.14-0.25-3.42-2.93-3.32c-2.42,0.1-2.6,1.3-2.57,3.18
	c0.07,4.65-0.04,9.3,0.02,13.96c0.11,8.97,4.83,13.96,13.24,14.08c9.04,0.13,14.23-4.94,14.39-14.06
	C935.58,763.61,935.55,761.61,935.55,759.62z M763.82,779.75c0.84-0.12,2.16-0.25,3.46-0.51c4.62-0.91,8.16-3.05,8.63-8.25
	c0.39-4.32-2.16-7.07-7.93-8.72c-2.56-0.73-5.16-1.29-7.7-2.05c-1.68-0.5-3.13-1.48-2.93-3.49c0.18-1.85,1.53-2.96,3.23-3.4
	c3.16-0.82,6.3-0.49,9.28,0.79c1.57,0.68,2.82,1.66,3.9-0.82c1.17-2.71-0.57-3.17-2.33-3.79c-4.17-1.47-8.39-1.99-12.72-0.6
	c-3.96,1.28-6.87,3.53-7.08,7.99c-0.21,4.6,2.69,6.91,6.69,8.13c3.02,0.92,6.11,1.61,9.11,2.59c1.44,0.47,2.76,1.45,2.75,3.19
	c0,1.98-1.47,2.87-3.13,3.41c-4.24,1.39-8.28,0.52-12.02-1.55c-1.94-1.08-2.49-0.31-3.35,1.27c-0.91,1.67-0.3,2.4,1.08,3.12
	C756.09,778.79,759.62,779.6,763.82,779.75z M601.03,764.14c32.16,0,64.32,0.04,96.48-0.07c2.78-0.01,5.84,1.23,8.42-0.96
	c-2.55-2.66-5.83-1.32-8.71-1.33c-52.65-0.11-105.31-0.09-157.96-0.09c-13.33,0-26.66,0-39.99,0.04c-1.05,0-2.72-0.46-2.82,1.14
	c-0.11,1.74,1.58,1.16,2.61,1.25c0.99,0.08,2,0.03,3,0.03C535.04,764.15,568.04,764.15,601.03,764.14z M843.84,766.93
	c-0.02,0-0.03,0-0.05,0c0-1.49-0.08-3,0.02-4.48c0.2-2.96-1.13-6.56,0.74-8.67c1.15-1.3,4.7-0.58,7.17-0.58
	c1.76,0,2.31-0.76,2.22-2.4c-0.06-1.25-0.09-2.39-1.75-2.38c-7.47,0.05-14.95,0.13-22.42,0.18c-1.7,0.01-1.68,1.15-1.72,2.37
	c-0.04,1.35,0.25,2.25,1.88,2.17c1.49-0.07,3.01,0.17,4.48-0.03c3.19-0.45,3.89,0.94,3.79,3.91c-0.22,6.3,0.01,12.62-0.09,18.93
	c-0.03,2.16,0.27,3.33,2.9,3.32c2.66-0.01,2.94-1.25,2.86-3.37C843.75,772.92,843.84,769.92,843.84,766.93z M1085.05,764.04
	c0-4.16-0.06-8.32,0.03-12.48c0.04-1.91-0.17-3.19-2.63-3.03c-1.93,0.12-3.06,0.36-3.02,2.75c0.14,8.49,0.16,16.98,0.05,25.46
	c-0.04,2.63,1.47,2.36,3.2,2.48c2.14,0.15,2.45-0.9,2.41-2.69C1084.98,772.37,1085.05,768.21,1085.05,764.04z"/>
<g>
	<path class="st1" d="M680.1,484.05c-25.24,35.65-50.48,71.31-76.17,107.6c-25.67-36.25-51.11-72.15-76.59-108.12
		c-1.68,1.14-0.9,2.59-0.9,3.75c-0.07,33.49-0.16,66.98,0.01,100.47c0.02,4.01-1.01,5.04-4.94,4.89
		c-8.32-0.32-16.67-0.35-24.99,0.01c-4.12,0.18-4.93-1.28-4.92-5.04c0.1-44.82,0.05-89.64,0.04-134.47c0-10,0.1-20-0.05-29.99
		c-0.04-2.78,0.65-3.76,3.59-3.69c7.66,0.18,15.34,0.19,22.99-0.08c3.4-0.12,5.28,1.08,7.22,3.88
		c25.48,36.84,51.11,73.57,76.71,110.33c0.65,0.94,1.36,1.84,2.42,3.28c3.74-5.41,7.31-10.55,10.86-15.7
		c22.77-33.06,45.56-66.11,68.26-99.21c1.3-1.9,2.66-2.54,4.9-2.51c7.5,0.13,15.01,0.27,22.49-0.08c4.12-0.19,5.27,0.99,5.26,5.18
		c-0.15,45.65-0.09,91.31-0.1,136.97c0,9.16-0.16,18.33,0,27.49c0.05,2.89-0.83,3.65-3.66,3.6c-9-0.17-18-0.22-26.99,0.02
		c-3.33,0.09-4.08-0.92-4.07-4.13c0.09-32.16,0.02-64.32,0-96.48c0-2.56,0-5.11,0-7.67C680.99,484.27,680.55,484.16,680.1,484.05z"
		/>
	<path class="st1" d="M1311.02,577.29c0,4.96-0.13,8.41,0.04,11.85c0.12,2.51-0.55,3.54-3.3,3.49c-8.99-0.16-17.99-0.24-26.98,0.01
		c-4.45,0.12-3.21-2.85-3.21-5.03c-0.04-40.3-0.02-80.61-0.02-120.91c0-14.82,0.12-29.65-0.06-44.47c-0.04-3.3,0.82-4.31,4.15-4.21
		c7.99,0.24,16,0.35,23.98,0.01c4.26-0.18,5.68,0.76,5.59,5.38c-0.33,16.15-0.13,32.31-0.13,48.46c0,2.46,0,4.91,0,8.56
		c8.77-8.57,18.25-13.7,29.15-16.02c18.8-4,37.2-2.43,54.75,5.36c15.5,6.88,25.58,18.95,30.14,35.26c3.77,13.5,4.3,27.27,1.64,41.08
		c-4.46,23.16-17.77,38.65-40.43,45.64c-16.09,4.96-32.44,5.69-48.81,1.47C1327.74,590.69,1318.84,586.34,1311.02,577.29z
		 M1394.71,530.35c-0.19-2.99-0.28-5.99-0.59-8.96c-1.81-16.93-11.38-27.3-28.11-30.5c-7.77-1.49-15.57-1.52-23.35-0.07
		c-16.21,3.02-28.39,13.82-30.89,28.75c-2.73,16.31-0.8,32.04,14.61,41.59c17.12,10.62,35.44,10.48,53.34,1.2
		c5.77-2.99,9.47-8.29,11.84-14.38C1393.75,542.32,1394.59,536.42,1394.71,530.35z"/>
	<path class="st1" d="M817.33,595.88c-13.07-0.12-25.92-1.55-38.22-6.38c-22.22-8.74-36.55-24.23-39.84-48.28
		c-2.83-20.73,0.19-40.33,15.14-56.39c11.52-12.37,26.45-18.32,42.71-20.92c18.13-2.9,36.17-2.25,53.89,3.25
		c30.09,9.34,47.21,34.15,45.15,65.61c-2.27,34.76-23.03,56.32-59.42,61.71C830.31,595.43,823.84,595.9,817.33,595.88z
		 M817.59,568.71c4.37,0.15,8.66-0.41,12.91-1.25c19.34-3.79,30.77-16.99,31.49-36.3c0.73-19.79-9.42-34.11-27.89-39.13
		c-12.02-3.27-24.06-3.05-35.91,0.75c-13.91,4.45-22.6,13.91-24.84,28.4c-2.31,14.98,0.48,28.64,13.17,38.57
		C795.61,566.88,806.46,568.43,817.59,568.71z"/>
	<path class="st1" d="M1111.89,419.53c25.82,0,51.65,0.1,77.47-0.1c4.1-0.03,5.06,1.26,4.9,5.07c-0.29,6.82-0.26,13.66-0.03,20.48
		c0.11,3.18-1,3.85-3.99,3.84c-18.83-0.1-37.65,0.12-56.48-0.05c-3.94-0.04-4.98,1.1-4.96,5c0.15,43.98,0.12,87.96,0.11,131.94
		c0,6.82-0.07,6.83-6.9,6.85c-7.66,0.02-15.34-0.26-22.99,0.13c-4.19,0.21-4.78-1.34-4.77-5.04c0.09-44.65-0.05-89.29,0.07-133.94
		c0.01-3.97-1-4.99-4.92-4.95c-18.66,0.19-37.32-0.04-55.98,0.12c-3.52,0.03-4.55-0.95-4.41-4.44c0.27-6.82,0.26-13.66,0.01-20.48
		c-0.13-3.44,0.84-4.49,4.39-4.47c26.16,0.15,52.31,0.08,78.47,0.08C1111.89,419.55,1111.89,419.54,1111.89,419.53z"/>
	<path class="st1" d="M949.99,487.39c16.36-19.82,35.97-27.17,59.88-23.38c2.97,0.47,4.17,1.53,4.08,4.75
		c-0.22,8.48-0.15,16.98,0.02,25.47c0.07,3.11-0.34,4.04-3.8,2.93c-13.12-4.23-25.97-3.19-38.15,3.38
		c-13.4,7.23-19.38,19.25-20.56,33.84c-1.42,17.6-0.51,35.27-0.54,52.9c-0.01,4.47-1.09,5.6-5.45,5.41
		c-8.47-0.37-16.98-0.22-25.47-0.07c-2.7,0.05-3.71-0.56-3.7-3.52c0.08-40.12,0.09-80.24-0.06-120.36c-0.01-3.49,1.26-4.1,4.31-4.04
		c8.49,0.17,16.98,0.21,25.47,0c3.04-0.08,4.12,0.72,4.01,3.84C949.84,474.46,949.99,480.39,949.99,487.39z"/>
	<path class="st1" d="M1248.97,528.65c0,19.65-0.14,39.31,0.11,58.96c0.05,4.3-1.25,5.2-5.28,5.03c-8.32-0.34-16.66-0.26-24.98-0.04
		c-3.15,0.08-3.9-0.96-3.9-3.95c0.09-40.14,0.09-80.28,0-120.43c-0.01-3.02,1.11-3.57,3.79-3.53c8.83,0.15,17.66,0.22,26.48,0
		c3.22-0.08,3.86,1.07,3.84,4c-0.11,19.99-0.06,39.98-0.06,59.96C1248.99,528.65,1248.98,528.65,1248.97,528.65z"/>
	<path class="st2" d="M1232.15,449.7c-13.05-0.04-22.52-9.38-22.57-22.23c-0.04-12.89,9.86-22.95,22.56-22.9
		c13.68,0.05,23.28,9.72,23.15,23.3C1255.17,440.1,1244.95,449.74,1232.15,449.7z"/>
	<path class="st1" d="M988.54,659.37c0-3.82,0.14-7.65-0.05-11.47c-0.13-2.67,0.47-3.99,3.5-3.79c4.47,0.29,9-0.1,13.45,0.38
		c8.54,0.92,13.73,6.84,13.62,14.98c-0.11,8.45-5.55,14.55-14.05,15.25c-4.63,0.38-9.31,0.08-13.96,0.2
		c-1.92,0.05-2.63-0.6-2.58-2.57c0.12-4.32,0.04-8.64,0.04-12.97C988.52,659.37,988.53,659.37,988.54,659.37z M999.38,648.83
		c-4.29-1.32-5.58,1.24-5.17,5.84c0.21,2.3-0.03,4.65-0.01,6.97c0.05,9.23,0.06,9.23,9.21,8.42c8.39-0.74,12.76-9.42,8.27-16.53
		C1009.01,649.31,1004.7,648.9,999.38,648.83z"/>
	<path class="st1" d="M1215.78,658.04c69.7,0,139.39,0,209.09,0c0,0.42,0,0.83,0,1.25c-69.7,0-139.4,0-209.11,0
		C1215.77,658.87,1215.77,658.45,1215.78,658.04z"/>
	<path class="st1" d="M1153.22,675.35c-9.81-0.13-16.75-6.92-16.51-16.16c0.24-9.13,7.6-15.71,17.28-15.45
		c9.38,0.26,16.41,7.12,16.34,15.95C1170.25,668.73,1162.88,675.48,1153.22,675.35z M1142.45,659.56c0.03,6.12,4.99,11,11.15,10.98
		c6.16-0.03,11.2-4.99,11.16-11c-0.04-6.21-4.86-10.89-11.18-10.87C1147.19,648.7,1142.42,653.37,1142.45,659.56z"/>
	<path class="st1" d="M931.09,655.3c0,1.99,0.03,3.99-0.01,5.98c-0.16,9.12-5.35,14.19-14.39,14.06
		c-8.41-0.12-13.14-5.11-13.24-14.08c-0.06-4.65,0.05-9.3-0.02-13.96c-0.03-1.88,0.15-3.09,2.57-3.18c2.68-0.11,2.96,1.18,2.93,3.32
		c-0.06,4.82-0.09,9.64,0.13,14.45c0.26,5.66,3.25,8.58,8.31,8.49c4.88-0.08,7.65-2.85,7.9-8.33c0.21-4.64,0.06-9.3,0.13-13.95
		c0.03-1.83-0.8-4.01,2.61-4.08c3.62-0.07,2.97,2.22,3,4.3c0.03,2.33,0.01,4.65,0.01,6.98C931.04,655.3,931.07,655.3,931.09,655.3z"
		/>
	<path class="st1" d="M759.37,675.43c-4.21-0.15-7.74-0.96-11.05-2.69c-1.38-0.72-1.99-1.45-1.08-3.12
		c0.86-1.57,1.41-2.34,3.35-1.27c3.74,2.07,7.78,2.93,12.02,1.55c1.66-0.54,3.12-1.43,3.13-3.41c0-1.74-1.31-2.72-2.75-3.19
		c-3-0.98-6.09-1.67-9.11-2.59c-4-1.22-6.9-3.53-6.69-8.13c0.2-4.46,3.11-6.72,7.08-7.99c4.33-1.39,8.54-0.88,12.72,0.6
		c1.76,0.62,3.51,1.08,2.33,3.79c-1.08,2.48-2.33,1.5-3.9,0.82c-2.98-1.29-6.12-1.61-9.28-0.79c-1.7,0.44-3.05,1.55-3.23,3.4
		c-0.2,2.02,1.25,2.99,2.93,3.49c2.54,0.76,5.15,1.32,7.7,2.05c5.76,1.64,8.32,4.4,7.93,8.72c-0.47,5.19-4,7.34-8.63,8.25
		C761.53,675.17,760.2,675.3,759.37,675.43z"/>
	<path class="st1" d="M596.57,659.82c-32.99,0-65.99,0-98.98,0c-1,0-2,0.05-3-0.03c-1.03-0.08-2.72,0.5-2.61-1.25
		c0.1-1.6,1.77-1.14,2.82-1.14c13.33-0.04,26.66-0.04,39.99-0.04c52.65,0,105.31-0.02,157.96,0.09c2.88,0.01,6.16-1.33,8.71,1.33
		c-2.58,2.19-5.64,0.95-8.42,0.96C660.89,659.86,628.73,659.82,596.57,659.82z"/>
	<path class="st1" d="M839.38,662.61c0,2.99-0.09,5.98,0.03,8.97c0.09,2.12-0.2,3.36-2.86,3.37c-2.63,0.01-2.93-1.16-2.9-3.32
		c0.1-6.31-0.13-12.63,0.09-18.93c0.1-2.97-0.59-4.36-3.79-3.91c-1.47,0.21-2.99-0.04-4.48,0.03c-1.63,0.08-1.92-0.82-1.88-2.17
		c0.04-1.22,0.02-2.36,1.72-2.37c7.47-0.05,14.95-0.13,22.42-0.18c1.66-0.01,1.69,1.13,1.75,2.38c0.08,1.65-0.46,2.4-2.22,2.4
		c-2.47,0-6.02-0.72-7.17,0.58c-1.87,2.11-0.55,5.71-0.74,8.67c-0.1,1.49-0.02,2.99-0.02,4.48
		C839.35,662.61,839.36,662.61,839.38,662.61z"/>
	<path class="st1" d="M1080.59,659.72c0,4.16-0.06,8.32,0.03,12.48c0.04,1.79-0.26,2.84-2.41,2.69c-1.72-0.12-3.23,0.15-3.2-2.48
		c0.12-8.49,0.09-16.98-0.05-25.46c-0.04-2.39,1.09-2.62,3.02-2.75c2.46-0.16,2.67,1.12,2.63,3.03
		C1080.54,651.4,1080.59,655.56,1080.59,659.72z"/>
</g>
</svg>
