<?xml version="1.0" encoding="utf-8"?>
<!-- Generator: Adobe Illustrator 25.4.1, SVG Export Plug-In . SVG Version: 6.00 Build 0)  -->
<svg version="1.1" id="Layer_1" xmlns="http://www.w3.org/2000/svg" xmlns:xlink="http://www.w3.org/1999/xlink" x="0px" y="0px"
	 viewBox="450 280 1020 515" style="enable-background:new 450 280 1020 515;" xml:space="preserve">
<style type="text/css">
	.st0{display:none;fill:#FAF6F0;}
	.st1{fill:#FDFDFD;}
	.st2{fill:#CDE241;}
</style>
<path class="st0" d="M959.5,982.91c-293.97,0-587.94-0.01-881.91,0.09c-3.75,0-4.59-0.84-4.59-4.59c0.1-292.61,0.1-585.21,0-877.82
	c0-3.75,0.84-4.59,4.59-4.59c588.27,0.1,1176.54,0.1,1764.81,0c3.75,0,4.59,0.84,4.59,4.59c-0.1,292.61-0.1,585.21,0,877.82
	c0,3.75-0.84,4.59-4.59,4.59C1548.1,982.9,1253.8,982.91,959.5,982.91z M684.56,588.37c0.45,0.11,0.9,0.22,1.34,0.33
	c0,2.56,0,5.11,0,7.67c0.03,32.16,0.1,64.32,0,96.48c-0.01,3.21,0.74,4.22,4.07,4.13c8.99-0.24,18-0.2,26.99-0.02
	c2.82,0.05,3.71-0.71,3.66-3.6c-0.16-9.16,0-18.33,0-27.49c0.01-45.66-0.06-91.31,0.1-136.97c0.01-4.19-1.13-5.37-5.26-5.18
	c-7.48,0.34-15,0.2-22.49,0.08c-2.24-0.04-3.6,0.61-4.9,2.51c-22.7,33.1-45.49,66.15-68.26,99.21c-3.55,5.15-7.11,10.29-10.86,15.7
	c-1.06-1.43-1.76-2.34-2.42-3.28c-25.6-36.76-51.23-73.49-76.71-110.33c-1.94-2.8-3.82-4-7.22-3.88
	c-7.66,0.27-15.33,0.26-22.99,0.08c-2.94-0.07-3.63,0.91-3.59,3.69c0.15,10,0.05,19.99,0.05,29.99
	c0.01,44.82,0.06,89.65-0.04,134.47c-0.01,3.76,0.8,5.21,4.92,5.04c8.32-0.36,16.67-0.33,24.99-0.01c3.93,0.15,4.96-0.89,4.94-4.89
	c-0.16-33.49-0.07-66.98-0.01-100.47c0-1.16-0.78-2.61,0.9-3.75c25.48,35.96,50.91,71.87,76.59,108.12
	C634.07,659.68,659.31,624.03,684.56,588.37z M818.35,301.46c0,2.69,0,3.81,0,4.94c0,52.82,0.11,105.64-0.17,158.46
	c-0.03,6.56,1.21,11.4,6.87,15.14c3.72,2.46,6.79,5.87,10.2,8.81c7.25,6.25,14.52,12.46,22.84,19.6c0-37.81,0-74.24,0-111.71
	c20.27,19.07,39.75,37.24,58.99,55.65c2.85,2.73,4.12,2.13,6.59-0.24c17.27-16.65,34.7-33.14,52.09-49.67
	c1.85-1.76,3.79-3.41,6.59-5.93c0,37.81,0,74.3,0,111.7c12.9-11.27,25.01-21.94,37.24-32.47c1.8-1.55,1.98-3.22,1.98-5.27
	c-0.03-54.49-0.03-108.97-0.06-163.46c0-1.42,0.48-2.99-0.75-4.27c-0.49,0.15-1.1,0.16-1.41,0.46
	c-31.87,30.54-63.74,61.08-95.5,91.73c-2.66,2.57-4.18,2.93-7.04,0.17c-17.86-17.24-35.93-34.27-53.93-51.36
	C848.39,329.99,833.91,316.25,818.35,301.46z M1315.48,681.61c7.82,9.05,16.71,13.4,26.51,15.92c16.37,4.22,32.72,3.49,48.81-1.47
	c22.66-6.99,35.96-22.47,40.43-45.64c2.66-13.81,2.13-27.58-1.64-41.08c-4.56-16.31-14.64-28.38-30.14-35.26
	c-17.56-7.79-35.95-9.36-54.75-5.36c-10.9,2.32-20.39,7.45-29.15,16.02c0-3.65,0-6.1,0-8.56c0-16.16-0.2-32.31,0.13-48.46
	c0.09-4.62-1.33-5.56-5.59-5.38c-7.98,0.34-15.99,0.23-23.98-0.01c-3.33-0.1-4.19,0.9-4.15,4.21c0.18,14.82,0.06,29.64,0.06,44.47
	c-0.01,40.3-0.03,80.61,0.02,120.91c0,2.18-1.24,5.15,3.21,5.03c8.99-0.24,17.99-0.17,26.98-0.01c2.75,0.05,3.42-0.98,3.3-3.49
	C1315.35,690.03,1315.48,686.57,1315.48,681.61z M821.79,700.19c6.51,0.03,12.98-0.44,19.42-1.4c36.38-5.39,57.14-26.95,59.42-61.71
	c2.06-31.46-15.07-56.27-45.15-65.61c-17.71-5.5-35.75-6.15-53.89-3.25c-16.27,2.6-31.2,8.55-42.71,20.92
	c-14.96,16.06-17.97,35.67-15.14,56.39c3.29,24.06,17.62,39.55,39.84,48.28C795.86,698.65,808.71,700.08,821.79,700.19z
	 M1116.35,523.86c0,0.01,0,0.02,0,0.03c-26.16,0-52.31,0.07-78.47-0.08c-3.54-0.02-4.51,1.03-4.39,4.47
	c0.25,6.82,0.26,13.66-0.01,20.48c-0.14,3.49,0.89,4.47,4.41,4.44c18.66-0.16,37.32,0.07,55.98-0.12c3.93-0.04,4.93,0.98,4.92,4.95
	c-0.12,44.65,0.01,89.29-0.07,133.94c-0.01,3.7,0.58,5.25,4.77,5.04c7.64-0.39,15.32-0.11,22.99-0.13c6.83-0.02,6.9-0.03,6.9-6.85
	c0.01-43.98,0.03-87.96-0.11-131.94c-0.01-3.9,1.02-5.03,4.96-5c18.82,0.17,37.65-0.04,56.48,0.05c2.99,0.02,4.1-0.65,3.99-3.84
	c-0.23-6.82-0.25-13.67,0.03-20.48c0.16-3.81-0.81-5.1-4.9-5.07C1168,523.95,1142.17,523.86,1116.35,523.86z M954.44,591.72
	c0-7-0.15-12.93,0.06-18.84c0.11-3.12-0.97-3.91-4.01-3.84c-8.49,0.21-16.98,0.17-25.47,0c-3.05-0.06-4.32,0.55-4.31,4.04
	c0.14,40.12,0.14,80.24,0.06,120.36c-0.01,2.96,1,3.57,3.7,3.52c8.49-0.15,16.99-0.3,25.47,0.07c4.36,0.19,5.44-0.94,5.45-5.41
	c0.03-17.63-0.89-35.3,0.54-52.9c1.18-14.6,7.15-26.62,20.56-33.84c12.18-6.57,25.02-7.61,38.15-3.38c3.46,1.12,3.87,0.19,3.8-2.93
	c-0.18-8.49-0.25-16.98-0.02-25.47c0.08-3.22-1.12-4.28-4.08-4.75C990.41,564.55,970.8,571.9,954.44,591.72z M1253.43,632.98
	c0.01,0,0.01,0,0.02,0c0-19.99-0.05-39.98,0.06-59.96c0.02-2.93-0.62-4.08-3.84-4c-8.82,0.22-17.66,0.15-26.48,0
	c-2.68-0.04-3.8,0.51-3.79,3.53c0.09,40.14,0.09,80.28,0,120.43c-0.01,2.99,0.74,4.04,3.9,3.95c8.32-0.22,16.67-0.29,24.98,0.04
	c4.02,0.16,5.33-0.73,5.28-5.03C1253.29,672.29,1253.43,652.63,1253.43,632.98z M1101.05,321.92c-0.02-13.58-11.58-24.6-25.66-24.45
	c-14.96,0.16-25.76,10.68-26.01,25.33c-0.22,12.71,11.87,23.92,25.78,23.9C1089.7,346.69,1101.07,335.8,1101.05,321.92z
	 M1236.61,554.02c12.8,0.04,23.03-9.6,23.14-21.82c0.13-13.59-9.47-23.25-23.15-23.3c-12.7-0.05-22.6,10.01-22.56,22.9
	C1214.08,544.64,1223.56,553.98,1236.61,554.02z M993,763.69c-0.01,0-0.02,0-0.03,0c0,4.32,0.08,8.65-0.04,12.97
	c-0.05,1.97,0.65,2.63,2.58,2.57c4.65-0.12,9.33,0.18,13.96-0.2c8.5-0.7,13.95-6.8,14.05-15.25c0.1-8.14-5.09-14.06-13.62-14.98
	c-4.44-0.48-8.97-0.09-13.45-0.38c-3.03-0.2-3.63,1.13-3.5,3.79C993.14,756.04,993,759.87,993,763.69z M1220.24,762.36
	c-0.01,0.42-0.01,0.83-0.02,1.25c69.7,0,139.4,0,209.11,0c0-0.42,0-0.83,0-1.25C1359.63,762.36,1289.93,762.36,1220.24,762.36z
	 M1157.68,779.68c9.66,0.12,17.03-6.63,17.11-15.66c0.08-8.83-6.96-15.7-16.34-15.95c-9.68-0.26-17.05,6.32-17.28,15.45
	C1140.93,772.76,1147.86,779.55,1157.68,779.68z M935.55,759.62c-0.02,0-0.05,0-0.07,0c0-2.33,0.02-4.65-0.01-6.98
	c-0.03-2.08,0.62-4.36-3-4.3c-3.41,0.07-2.59,2.25-2.61,4.08c-0.07,4.65,0.09,9.31-0.13,13.95c-0.25,5.48-3.02,8.24-7.9,8.33
	c-5.06,0.09-8.05-2.83-8.31-8.49c-0.22-4.81-0.19-9.64-0.13-14.45c0.03-2.14-0.25-3.42-2.93-3.32c-2.42,0.1-2.6,1.3-2.57,3.18
	c0.07,4.65-0.04,9.3,0.02,13.96c0.11,8.97,4.83,13.96,13.24,14.08c9.04,0.13,14.23-4.94,14.39-14.06
	C935.58,763.61,935.55,761.61,935.55,759.62z M763.82,779.75c0.84-0.12,2.16-0.25,3.46-0.51c4.62-0.91,8.16-3.05,8.63-8.25
	c0.39-4.32-2.16-7.07-7.93-8.72c-2.56-0.73-5.16-1.29-7.7-2.05c-1.68-0.5-3.13-1.48-2.93-3.49c0.18-1.85,1.53-2.96,3.23-3.4
	c3.16-0.82,6.3-0.49,9.28,0.79c1.57,0.68,2.82,1.66,3.9-0.82c1.17-2.71-0.57-3.17-2.33-3.79c-4.17-1.47-8.39-1.99-12.72-0.6
	c-3.96,1.28-6.87,3.53-7.08,7.99c-0.21,4.6,2.69,6.91,6.69,8.13c3.02,0.92,6.11,1.61,9.11,2.59c1.44,0.47,2.76,1.45,2.75,3.19
	C773.8,777.62,768.96,779.03,763.82,779.75z"/>
	<path class="st1" d="M1460.9,644.96c0,48.31-0.05,96.63,0.1,144.94c0.01,3.42-0.67,4.1-4.1,4.09
		c-98.98-0.12-197.95-0.1-296.93-0.1c0.39-0.99,1.33-0.75,2.09-0.95c8.21-2.12,13.28-8.97,12.75-17.21
		c-0.54-8.37-6.83-14.5-15.99-15.55c-8.3-0.95-16.52,4.19-18.68,11.68c-2.43,8.45,0.96,16.34,8.57,20.11
		c1.12,0.56,2.65,0.47,3.26,1.91c-24.66,0-49.32,0-73.98,0c2.31-1.19,3.17-2.89,3.09-5.66c-0.24-7.95-0.13-15.91-0.06-23.86
		c0.02-2.23-0.15-4.02-3-3.94c-2.59,0.07-3.17,1.47-3.12,3.9c0.15,8.12,0.13,16.24,0.02,24.36c-0.02,1.88,0.24,3.57,1.08,5.2
		c-25.99,0-51.99,0-77.98,0c0.52-1.68,1.93-0.86,2.93-0.95c9.19-0.87,14.88-6.65,15.07-15.41c0.2-9.26-5.47-15.65-14.81-16.77
		c-3.98-0.48-8.01,0.14-11.92-0.19c-4.49-0.38-4.91,1.6-4.83,5.14c0.14,6.48,0.35,12.98-0.56,19.42c-0.49,3.5,0.4,6.44,3.13,8.75
		c-24.66,0-49.32,0-73.98,0c8.88-2.71,11.8-9.08,11.21-17.82c-0.26-3.81-0.08-7.65-0.04-11.47c0.03-2.12-0.02-4.12-2.91-4.13
		c-2.99-0.01-3.38,1.83-3.31,4.33c0.14,4.66,0.18,9.33,0,13.98c-0.24,6.2-3.01,9.2-8.16,9.26c-5.23,0.07-7.98-2.82-8.25-9.06
		c-0.22-4.98-0.15-9.97-0.18-14.95c-0.01-2.01-0.35-3.71-2.93-3.62c-2.19,0.08-3.35,1.05-3.3,3.4c0.08,3.83,0.29,7.68-0.03,11.48
		c-0.72,8.42,1.9,14.89,9.89,18.6c-26.99,0-53.99,0-80.98,0c2.32-1.2,3.23-2.91,3.08-5.68c-0.32-5.8-0.1-11.63-0.27-17.44
		c-0.05-2.06-0.06-4.14-3.01-4.08c-2.7,0.05-3.23-1.57-3.18-3.95c-0.14-8.12-0.13-16.24-0.02-24.36c0.02-1.88-0.24-3.57-1.08-5.2
		c-33.65,0-67.31,0-100.96,0c0.32-0.87,0.99-0.75,1.57-0.86c9.33-1.85,14.89-8.4,14.79-17.13c-0.1-8.5-5.95-15.05-14.95-16.03
		c-6.84-0.74-13.79,0.48-20.67,0.34c-2.48-0.3-3.52,1.02-3.41,3.43c0.23,5.15,0.43,10.31,0-15.45c-0.45,5.43,1.83,10.51,7.03,13.68
		c0.69,0.42,1.6,0.59,2.02,1.81c-24.99,0-49.99,0-74.98,0c2.19-1.12,3.02-2.73,2.94-5.35c-0.23-7.95-0.12-15.91-0.06-23.86
		c-0.02-2.23,0.16-4.02-3.01-3.94c-2.59-0.07-3.17-1.47-3.12-3.9c-0.15-8.12-0.13-16.24-0.02-24.36c-0.02-1.88,0.24-3.57-1.08-5.2
		c-24.66,0-49.32,0-73.98,0c1.07-0.75,2.16-1.5,3.22-2.26c6.26-4.48,9.08-11.08,7.74-18.73c-1.34-7.66-7.14-12.75-14.82-13.12
		c-9.08-0.44-18.23-0.02-27.35-0.08c-2.46-0.02-3.23,0.96-3.19,3.37c0.13,7.66,0.18,15.33,0,22.99c-0.16,6.67,2.2,11.55,8.27,13.79
		c-25.99,0-51.99,0-77.98,0c0.39-0.99,1.33-0.75,2.09-0.95c-8.21,2.12-13.28,8.97-12.75,17.21c0.54,8.37,6.83,14.5,15.99,15.55
		c8.3,0.95,16.52-4.19,18.68-11.68c2.43-8.45-0.96-16.34-8.57-20.11c-1.12-0.56-2.65-0.47-3.26-1.91c24.99,0,49.99,0,74.98,0
		c-2.31,1.19-3.17,2.89-3.09,5.66c0.24,7.95,0.13,15.91,0.06,23.86c-0.02,2.23,0.15,4.02,3,3.94c2.59-0.07,3.17-1.47,3.12-3.9
		c-0.15-8.12-0.13-16.24-0.02-24.36c0.02-1.88-0.24-3.57-1.08-5.2C1412.25,644.96,1436.57,644.96,1460.9,644.96z"/>
	<path class="st2" d="M1236.61,554.02c-13.05-0.04-22.53-9.38-22.57-22.42c-0.04-12.89,9.86-22.95,22.56-22.9
		c13.68,0.05,23.28,9.71,23.15,23.3C1259.64,544.42,1249.41,554.06,1236.61,554.02z"/>
</g>
</svg>
